<?xml version="1.0" encoding="UTF-8" standalone="no"?>
<!-- Created with Inkscape (http://www.inkscape.org/) -->

<svg
   version="1.1"
   id="svg48"
   width="438.43124"
   height="405.98358"
   viewBox="0 0 438.43124 405.98358"
   sodipodi:docname="perform-trigger.svg"
   inkscape:version="1.2.2 (b0a8486541, 2022-12-01)"
   xmlns:inkscape="http://www.inkscape.org/namespaces/inkscape"
   xmlns:sodipodi="http://sodipodi.sourceforge.net/DTD/sodipodi-0.dtd"
   xmlns="http://www.w3.org/2000/svg"
   xmlns:svg="http://www.w3.org/2000/svg">
  <defs
     id="defs52" />
  <sodipodi:namedview
     id="namedview50"
     pagecolor="#ffffff"
     bordercolor="#000000"
     borderopacity="0.25"
     inkscape:showpageshadow="2"
     inkscape:pageopacity="0.0"
     inkscape:pagecheckerboard="0"
     inkscape:deskcolor="#d1d1d1"
     showgrid="false"
     inkscape:zoom="0.41113281"
     inkscape:cx="-508.35154"
     inkscape:cy="242.01425"
     inkscape:window-width="1854"
     inkscape:window-height="1009"
     inkscape:window-x="66"
     inkscape:window-y="32"
     inkscape:window-maximized="1"
     inkscape:current-layer="g54" />
  <g
     inkscape:groupmode="layer"
     inkscape:label="Image"
     id="g54"
     transform="translate(-903.73797,-273.21778)">
    <g
       id="g734">
      <path
         style="fill:#8662fd;stroke-width:0.987845"
         d="m 1088.7491,678.16938 c -2.2638,-0.7534 -6.0014,-2.50989 -8.3058,-3.9033 -2.3044,-1.39341 -41.8854,-41.0397 -87.95785,-88.10285 -72.7204,-74.284 -84.04503,-86.24552 -85.86713,-90.69624 -4.38622,-10.71389 -3.75489,-22.51351 1.83907,-34.37251 2.56574,-5.43926 6.48437,-10.06653 23.83928,-28.15034 14.12152,-14.71462 22.24643,-22.41267 25.38545,-24.05176 5.77742,-3.01678 14.64395,-3.29356 19.74728,-0.61644 1.88132,0.98691 22.06327,20.70763 44.8487,43.82384 l 41.4281,42.02945 34.8167,-36.40422 34.8167,-36.40422 -1.3865,-4.08535 c -4.2766,-12.60053 -6.1813,-32.38067 -4.4371,-46.07882 3.1693,-24.89034 12.9243,-45.72584 29.9548,-63.98032 29.3042,-31.41042 72.683,-42.06796 112.3589,-27.60498 16.1811,5.89849 27.5108,13.39216 40.5588,26.82638 19.8642,20.45208 30.3439,44.45906 31.6423,72.48631 1.4833,32.01813 -8.9673,59.97102 -30.7359,82.21086 -7.4845,7.64658 -22.0115,18.85807 -24.4443,18.86537 -0.4678,10e-4 -0.8457,1.708 -0.8398,3.79243 0.015,5.32908 -2.4859,14.66283 -5.5341,20.65192 -1.9418,3.81534 -22.2498,25.41221 -81.4473,86.61656 -88.5211,91.52194 -83.7425,87.24881 -98.5043,88.08445 -4.9221,0.27862 -9.1312,-0.056 -11.776,-0.93622 z m 139.117,-183.22148 c -0.2702,-0.44512 -2.1122,-0.81419 -4.0931,-0.82015 -10.0695,-0.0303 -29.2543,-6.21766 -41.3447,-13.33418 l -7.4661,-4.39468 -54.5621,56.36218 -54.5619,56.36217 17.8284,18.46998 17.8285,18.46996 63.4312,-65.15298 c 34.8871,-35.83415 63.21,-65.51718 62.9398,-65.9623 z m 31.7537,-26.35724 c 33.0493,-10.96791 55.9765,-38.83531 60.3689,-73.3763 4.7947,-37.70556 -14.7236,-74.15997 -48.6397,-90.84473 -13.0309,-6.41049 -21.9566,-8.49069 -36.6184,-8.5342 -13.4158,-0.0398 -20.2032,1.26924 -32.9041,6.34601 -25.0058,9.9952 -44.6865,34.02427 -51.4558,62.82462 -2.4343,10.35709 -2.1827,28.56448 0.5482,39.66269 8.2803,33.65191 33.0773,58.686 65.2816,65.90613 4.9578,1.11153 10.7215,1.42716 20.9839,1.14916 12.1506,-0.32915 15.3188,-0.77164 22.4354,-3.13338 z m -44.1484,-19.91903 c -0.9419,-2.10233 -0.2047,-6.21051 4.6438,-25.8755 l 5.7634,-23.3764 -9.3336,-0.60537 c -5.1335,-0.33297 -12.2977,-0.59883 -15.9205,-0.59082 -5.2814,0.0118 -6.9749,-0.38065 -8.5443,-1.97957 -2.7496,-2.80128 -2.4574,-5.1819 1.2493,-10.17718 1.7698,-2.38495 6.9368,-9.29744 11.4823,-15.36109 4.5455,-6.06365 14.9438,-19.94553 23.1074,-30.84862 8.1636,-10.9031 15.9037,-20.5406 17.2002,-21.41667 2.1574,-1.45786 2.5643,-1.45465 4.8014,0.0379 3.5446,2.36483 3.2407,5.94036 -2.4962,29.36968 -2.7318,11.15681 -4.7577,20.49813 -4.5022,20.75852 0.2556,0.26039 7.018,0.7333 15.0276,1.05093 15.149,0.60074 18.2378,1.43766 19.4356,5.26633 0.3418,1.09285 0.089,3.01811 -0.5625,4.27834 -1.3276,2.56894 -49.9713,67.44081 -52.6323,70.19114 -2.6185,2.70626 -7.3592,2.31392 -8.7194,-0.7216 z"
         id="path244"
         sodipodi:nodetypes="ssssssssscccssssssscsssssssscccccsssssssscssssscsssssssssssscsss" />
    </g>
    <g
       id="g669">
      <path
         d="m 344.4702,662.09393 c -2.26383,-0.75008 -6.00143,-2.504 -8.30578,-3.89757 -2.30435,-1.39358 -43.43344,-42.61022 -91.39797,-91.59255 -70.25405,-71.74481 -87.65619,-90.02671 -89.51237,-94.03756 -3.39511,-7.33616 -3.84883,-19.81422 -1.03371,-28.42843 3.12643,-9.56678 6.32478,-13.69529 27.69091,-35.74398 21.68332,-22.37601 25.27613,-24.96435 34.62495,-24.94452 3.64209,0.008 6.78067,0.74823 9.76499,2.30392 2.95727,1.54159 17.79481,15.89208 45.29681,43.80992 l 40.89898,41.51738 63.54267,-66.19077 63.54268,-66.19076 -18.63936,-0.46816 c -13.98352,-0.35122 -19.4936,-0.85888 -22.05927,-2.03235 -16.93222,-7.74438 -21.05898,-31.00847 -7.70631,-43.4434 7.84677,-7.30746 3.83399,-6.92271 74.40708,-7.13427 l 63.42917,-0.19014 5.56961,2.78208 c 6.17879,3.08638 10.95587,8.7299 12.58857,14.87181 0.64415,2.42314 0.98196,32.85299 0.95517,86.04156 l -0.0414,82.29252 -3.27699,6.98768 c -3.07782,6.56299 -8.31062,12.18677 -86.09785,92.53095 -93.04993,96.10859 -87.91517,91.49673 -102.62582,92.17481 -4.57433,0.21084 -9.10387,-0.18622 -11.61473,-1.01817 z m 77.04411,-130.58993 69.34831,-71.9582 -0.0624,-37.99998 -0.0624,-37.99997 -25.56338,26.57674 c -14.05986,14.61721 -53.51868,55.61466 -87.68627,91.10542 l -62.1229,64.52869 17.98817,18.70392 c 9.8935,10.28715 18.17365,18.77089 18.40035,18.85275 0.22668,0.0818 31.6189,-32.23237 69.76047,-71.80937 z"
         style="fill:#8662fd;stroke-width:0.987845"
         id="path370" />
    </g>
  </g>
</svg>
